#Comment line ignore any data following # character 
#Hierarchical Translation and Rotation (.htr) file 
[Header]	
#Header keywords are followed by a single value 
FileType HTR		#Single word string
DataType HTRS		#Translation followed by rotation and scale data
FileVersion 1		#integer
NumSegments 84		#integer
NumFrames 2		#integer
DataFrameRate 30		#integer, data frame rate in this file
EulerRotationOrder ZYX
CalibrationUnits mm
RotationUnits Degrees
GlobalAxisofGravity Y
BoneLengthAxis Y
ScaleFactor 1.00
[SegmentNames&Hierarchy]
#CHILD	PARENT
MASTER GLOBAL
root MASTER
chest root
L_mid_tent01 root
R_mid_tent01 root
spine01 root
Bip01_Neck chest
L_humerus chest
R_humerus chest
weapon_bone chest
Bip01_Head Bip01_Neck
eye_left_bone Bip01_Head
eye_right_bone Bip01_Head
L_forearm L_humerus
L_front_hand L_forearm
L_weapon_bone L_forearm
L_front_hand01_01 L_front_hand
L_front_hand02_01 L_front_hand
L_front_hand03_01 L_front_hand
L_front_hand01_02 L_front_hand01_01
L_front_hand02_02 L_front_hand02_01
L_front_hand03_02 L_front_hand03_01
R_forearm R_humerus
R_front_hand R_forearm
R_weapon_bone R_forearm
R_front_hand01_01 R_front_hand
R_front_hand02_01 R_front_hand
R_front_hand03_01 R_front_hand
R_front_hand01_02 R_front_hand01_01
R_front_hand02_02 R_front_hand02_01
R_front_hand03_02 R_front_hand03_01
null_rope01_connect L_mid_tent01
Rope1_Seg01 null_rope01_connect
Rope1_Seg02 Rope1_Seg01
Rope1_Seg03 Rope1_Seg02
Rope1_Seg04 Rope1_Seg03
Rope1_Seg05 Rope1_Seg04
Rope1_Seg06 Rope1_Seg05
Rope1_Seg07 Rope1_Seg06
Rope1_Seg09 Rope1_Seg07
L_mid_hand01 Rope1_Seg09
L_mid_hand02 Rope1_Seg09
L_mid_hand03 Rope1_Seg09
null_rope02_connect R_mid_tent01
Rope2_Seg01 null_rope02_connect
Rope2_Seg02 Rope2_Seg01
Rope2_Seg03 Rope2_Seg02
Rope2_Seg04 Rope2_Seg03
Rope2_Seg05 Rope2_Seg04
Rope2_Seg06 Rope2_Seg05
Rope2_Seg07 Rope2_Seg06
Rope2_Seg09 Rope2_Seg07
R_mid_hand01 Rope2_Seg09
R_mid_hand02 Rope2_Seg09
R_mid_hand03 Rope2_Seg09
spine02 spine01
spine03 spine02
pelvis spine03
null_rope03_connect pelvis
null_rope04_connect pelvis
Rope3_Seg01 null_rope03_connect
Rope3_Seg02 Rope3_Seg01
Rope3_Seg03 Rope3_Seg02
Rope3_Seg04 Rope3_Seg03
Rope3_Seg05 Rope3_Seg04
Rope3_Seg06 Rope3_Seg05
Rope3_Seg07 Rope3_Seg06
Rope3_Seg08 Rope3_Seg07
Rope3_Seg09 Rope3_Seg08
R_rear_hand01 Rope3_Seg09
R_rear_hand02 Rope3_Seg09
R_rear_hand03 Rope3_Seg09
Rope4_Seg01 null_rope04_connect
Rope4_Seg02 Rope4_Seg01
Rope4_Seg03 Rope4_Seg02
Rope4_Seg04 Rope4_Seg03
Rope4_Seg05 Rope4_Seg04
Rope4_Seg06 Rope4_Seg05
Rope4_Seg07 Rope4_Seg06
Rope4_Seg08 Rope4_Seg07
Rope4_Seg09 Rope4_Seg08
L_rear_hand01 Rope4_Seg09
L_rear_hand02 Rope4_Seg09
L_rear_hand03 Rope4_Seg09
[BasePosition]
#SegmentName Tx, Ty, Tz, Rx, Ry, Rz, BoneLength
MASTER 0.000000 0.000000 0.000000 -90.000000 0.000000 0.000000 10.000000 
root 0.000000 0.000000 0.000000 0.000000 0.000000 0.000000 10.000000 
chest 0.000000 0.000000 0.000000 0.000000 0.000000 0.000000 10.000000 
L_mid_tent01 0.000000 0.000000 0.000000 0.000000 0.000000 0.000000 10.000000 
R_mid_tent01 0.000000 0.000000 0.000000 0.000000 0.000000 0.000000 10.000000 
spine01 0.000000 0.000000 0.000000 0.000000 0.000000 0.000000 10.000000 
Bip01_Neck 0.000000 0.000000 0.000000 0.000000 0.000000 0.000000 10.000000 
L_humerus 0.000000 0.000000 0.000000 0.000000 0.000000 0.000000 10.000000 
R_humerus 0.000000 0.000000 0.000000 0.000000 0.000000 0.000000 10.000000 
weapon_bone 0.000000 0.000000 0.000000 0.000000 0.000000 0.000000 10.000000 
Bip01_Head 0.000000 0.000000 0.000000 0.000000 0.000000 0.000000 10.000000 
eye_left_bone 0.000000 0.000000 0.000000 0.000000 0.000000 0.000000 10.000000 
eye_right_bone 0.000000 0.000000 0.000000 0.000000 0.000000 0.000000 10.000000 
L_forearm 0.000000 0.000000 0.000000 0.000000 0.000000 0.000000 10.000000 
L_front_hand 0.000000 0.000000 0.000000 0.000000 0.000000 0.000000 10.000000 
L_weapon_bone 0.000000 0.000000 0.000000 0.000000 0.000000 0.000000 10.000000 
L_front_hand01_01 0.000000 0.000000 0.000000 0.000000 0.000000 0.000000 10.000000 
L_front_hand02_01 0.000000 0.000000 0.000000 0.000000 0.000000 0.000000 10.000000 
L_front_hand03_01 0.000000 0.000000 0.000000 0.000000 0.000000 0.000000 10.000000 
L_front_hand01_02 0.000000 0.000000 0.000000 0.000000 0.000000 0.000000 10.000000 
L_front_hand02_02 0.000000 0.000000 0.000000 0.000000 0.000000 0.000000 10.000000 
L_front_hand03_02 0.000000 0.000000 0.000000 0.000000 0.000000 0.000000 10.000000 
R_forearm 0.000000 0.000000 0.000000 0.000000 0.000000 0.000000 10.000000 
R_front_hand 0.000000 0.000000 0.000000 0.000000 0.000000 0.000000 10.000000 
R_weapon_bone 0.000000 0.000000 0.000000 0.000000 0.000000 0.000000 10.000000 
R_front_hand01_01 0.000000 0.000000 0.000000 0.000000 0.000000 0.000000 10.000000 
R_front_hand02_01 0.000000 0.000000 0.000000 0.000000 0.000000 0.000000 10.000000 
R_front_hand03_01 0.000000 0.000000 0.000000 0.000000 0.000000 0.000000 10.000000 
R_front_hand01_02 0.000000 0.000000 0.000000 0.000000 0.000000 0.000000 10.000000 
R_front_hand02_02 0.000000 0.000000 0.000000 0.000000 0.000000 0.000000 10.000000 
R_front_hand03_02 0.000000 0.000000 0.000000 0.000000 0.000000 0.000000 10.000000 
null_rope01_connect 0.000000 0.000000 0.000000 0.000000 0.000000 0.000000 10.000000 
Rope1_Seg01 0.000000 0.000000 0.000000 0.000000 0.000000 0.000000 10.000000 
Rope1_Seg02 0.000000 0.000000 0.000000 0.000000 0.000000 0.000000 10.000000 
Rope1_Seg03 0.000000 0.000000 0.000000 0.000000 0.000000 0.000000 10.000000 
Rope1_Seg04 0.000000 0.000000 0.000000 0.000000 0.000000 0.000000 10.000000 
Rope1_Seg05 0.000000 0.000000 0.000000 0.000000 0.000000 0.000000 10.000000 
Rope1_Seg06 0.000000 0.000000 0.000000 0.000000 0.000000 0.000000 10.000000 
Rope1_Seg07 0.000000 0.000000 0.000000 0.000000 0.000000 0.000000 10.000000 
Rope1_Seg09 0.000000 0.000000 0.000000 0.000000 0.000000 0.000000 10.000000 
L_mid_hand01 0.000000 0.000000 0.000000 0.000000 0.000000 0.000000 10.000000 
L_mid_hand02 0.000000 0.000000 0.000000 0.000000 0.000000 0.000000 10.000000 
L_mid_hand03 0.000000 0.000000 0.000000 0.000000 0.000000 0.000000 10.000000 
null_rope02_connect 0.000000 0.000000 0.000000 0.000000 0.000000 0.000000 10.000000 
Rope2_Seg01 0.000000 0.000000 0.000000 0.000000 0.000000 0.000000 10.000000 
Rope2_Seg02 0.000000 0.000000 0.000000 0.000000 0.000000 0.000000 10.000000 
Rope2_Seg03 0.000000 0.000000 0.000000 0.000000 0.000000 0.000000 10.000000 
Rope2_Seg04 0.000000 0.000000 0.000000 0.000000 0.000000 0.000000 10.000000 
Rope2_Seg05 0.000000 0.000000 0.000000 0.000000 0.000000 0.000000 10.000000 
Rope2_Seg06 0.000000 0.000000 0.000000 0.000000 0.000000 0.000000 10.000000 
Rope2_Seg07 0.000000 0.000000 0.000000 0.000000 0.000000 0.000000 10.000000 
Rope2_Seg09 0.000000 0.000000 0.000000 0.000000 0.000000 0.000000 10.000000 
R_mid_hand01 0.000000 0.000000 0.000000 0.000000 0.000000 0.000000 10.000000 
R_mid_hand02 0.000000 0.000000 0.000000 0.000000 0.000000 0.000000 10.000000 
R_mid_hand03 0.000000 0.000000 0.000000 0.000000 0.000000 0.000000 10.000000 
spine02 0.000000 0.000000 0.000000 0.000000 0.000000 0.000000 10.000000 
spine03 0.000000 0.000000 0.000000 0.000000 0.000000 0.000000 10.000000 
pelvis 0.000000 0.000000 0.000000 0.000000 0.000000 0.000000 10.000000 
null_rope03_connect 0.000000 0.000000 0.000000 0.000000 0.000000 0.000000 10.000000 
null_rope04_connect 0.000000 0.000000 0.000000 0.000000 0.000000 0.000000 10.000000 
Rope3_Seg01 0.000000 0.000000 0.000000 0.000000 0.000000 0.000000 10.000000 
Rope3_Seg02 0.000000 0.000000 0.000000 0.000000 0.000000 0.000000 10.000000 
Rope3_Seg03 0.000000 0.000000 0.000000 0.000000 0.000000 0.000000 10.000000 
Rope3_Seg04 0.000000 0.000000 0.000000 0.000000 0.000000 0.000000 10.000000 
Rope3_Seg05 0.000000 0.000000 0.000000 0.000000 0.000000 0.000000 10.000000 
Rope3_Seg06 0.000000 0.000000 0.000000 0.000000 0.000000 0.000000 10.000000 
Rope3_Seg07 0.000000 0.000000 0.000000 0.000000 0.000000 0.000000 10.000000 
Rope3_Seg08 0.000000 0.000000 0.000000 0.000000 0.000000 0.000000 10.000000 
Rope3_Seg09 0.000000 0.000000 0.000000 0.000000 0.000000 0.000000 10.000000 
R_rear_hand01 0.000000 0.000000 0.000000 0.000000 0.000000 0.000000 10.000000 
R_rear_hand02 0.000000 0.000000 0.000000 0.000000 0.000000 0.000000 10.000000 
R_rear_hand03 0.000000 0.000000 0.000000 0.000000 0.000000 0.000000 10.000000 
Rope4_Seg01 0.000000 0.000000 0.000000 0.000000 0.000000 0.000000 10.000000 
Rope4_Seg02 0.000000 0.000000 0.000000 0.000000 0.000000 0.000000 10.000000 
Rope4_Seg03 0.000000 0.000000 0.000000 0.000000 0.000000 0.000000 10.000000 
Rope4_Seg04 0.000000 0.000000 0.000000 0.000000 0.000000 0.000000 10.000000 
Rope4_Seg05 0.000000 0.000000 0.000000 0.000000 0.000000 0.000000 10.000000 
Rope4_Seg06 0.000000 0.000000 0.000000 0.000000 0.000000 0.000000 10.000000 
Rope4_Seg07 0.000000 0.000000 0.000000 0.000000 0.000000 0.000000 10.000000 
Rope4_Seg08 0.000000 0.000000 0.000000 0.000000 0.000000 0.000000 10.000000 
Rope4_Seg09 0.000000 0.000000 0.000000 0.000000 0.000000 0.000000 10.000000 
L_rear_hand01 0.000000 0.000000 0.000000 0.000000 0.000000 0.000000 10.000000 
L_rear_hand02 0.000000 0.000000 0.000000 0.000000 0.000000 0.000000 10.000000 
L_rear_hand03 0.000000 0.000000 0.000000 0.000000 0.000000 0.000000 10.000000 
#Beginning of Data. Separated by tabs
#Fr	Tx	Ty	Tz	Rx	Ry	Rz	SF
[MASTER]
39 0.000000 0.000000 0.000000 0.001660 0.001660 0.001660 0.000000
40 0.000000 0.000000 0.000000 0.001660 0.001660 0.001660 0.000000
[root]
39 -16.502245 -199.343781 1093.534668 -85.747307 -61.785316 -93.080688 1111.678223
40 -16.502245 -199.343781 1093.534668 -85.747307 -61.785316 -93.080688 1111.678223
[chest]
39 -84.512650 -34.090519 0.000000 2.241972 -1.304040 -120.364357 91.129311
40 -84.512650 -34.090519 0.000000 2.247342 -1.314634 -120.512695 91.129311
[L_mid_tent01]
39 27.299500 22.177483 -249.917984 -17.027811 1.579623 128.051559 252.380859
40 27.299500 22.177483 -249.917984 -17.036446 1.519650 127.643326 252.380859
[R_mid_tent01]
39 23.228794 24.509907 226.238495 -174.971970 1.931394 117.818459 228.744751
40 23.228794 24.509907 226.238495 -174.962906 1.922570 117.441345 228.744751
[spine01]
39 -0.361383 -0.195265 0.000000 -0.000001 -0.000007 22.052340 0.410763
40 -0.361383 -0.195265 0.000000 -0.000001 -0.000007 22.052340 0.410763
[Bip01_Neck]
39 165.484543 71.581718 0.000119 175.896118 1.177290 24.871183 180.302734
40 165.484543 71.581718 0.000119 175.896118 1.177290 24.871183 180.302734
[L_humerus]
39 -13.983130 -135.272980 -120.471481 -91.668335 0.804969 -167.458282 181.680161
40 -13.983130 -135.272980 -120.471481 -91.668350 0.804970 -167.458282 181.680161
[R_humerus]
39 -13.983309 -135.273102 125.287651 103.000740 1.729733 -169.272232 184.909012
40 -13.983309 -135.273102 125.287651 103.000740 1.729733 -169.272232 184.909012
[weapon_bone]
39 235.964890 -300.705902 0.000000 0.000000 -89.951546 -128.212341 382.234833
40 235.964890 -300.705902 0.000000 0.000000 -89.951546 -128.212341 382.234833
[Bip01_Head]
39 102.819794 23.735447 5.410404 3.150732 3.423701 -20.839092 105.662453
40 102.819794 23.735445 5.410404 3.150732 3.423701 -20.839092 105.662453
[eye_left_bone]
39 -24.626970 125.451866 -64.772606 0.000000 -90.000000 -99.840431 143.318359
40 -24.626970 125.451866 -64.772606 0.000000 -90.000000 -99.840431 143.318359
[eye_right_bone]
39 -24.626970 125.451866 64.327362 0.000000 -89.960434 80.159386 143.117676
40 -24.626970 125.451866 64.327362 0.000000 -89.960434 80.159386 143.117676
[L_forearm]
39 322.776093 0.000000 -0.000119 0.000017 0.002347 -89.149834 322.776093
40 322.776093 0.000000 -0.000119 0.000017 0.002347 -89.149834 322.776093
[L_front_hand]
39 241.149185 -0.042021 -3.300071 -177.731964 -0.053146 -80.116013 241.171753
40 241.149185 -0.042021 -3.300071 -177.732224 -0.053563 -80.105667 241.171753
[L_weapon_bone]
39 156.183838 0.000000 0.000000 0.000014 0.000007 0.000001 156.183838
40 156.183838 0.000000 0.000000 0.000014 0.000007 0.000001 156.183838
[L_front_hand01_01]
39 86.095154 20.947098 -0.655860 0.405585 -0.442306 -4.620490 88.609184
40 86.095154 20.947098 -0.655860 0.405585 -0.442306 -4.620490 88.609184
[L_front_hand02_01]
39 86.935165 -11.437475 24.513514 116.959450 3.630817 1.495453 91.046425
40 86.935165 -11.437475 24.513514 116.959450 3.630818 1.495453 91.046425
[L_front_hand03_01]
39 86.637497 -14.123976 -20.424902 -118.420097 -4.656303 -0.152527 90.126129
40 86.637497 -14.123976 -20.424902 -118.420097 -4.656303 -0.152527 90.126129
[L_front_hand01_02]
39 71.020905 -0.000179 0.000030 0.000004 -0.000005 -8.379269 71.020905
40 71.020905 -0.000179 0.000030 0.000004 -0.000005 -8.379269 71.020905
[L_front_hand02_02]
39 71.020927 -0.000119 0.000060 -0.000005 -0.000004 -8.379259 71.020927
40 71.020927 -0.000119 0.000060 -0.000005 -0.000004 -8.379259 71.020927
[L_front_hand03_02]
39 71.020905 -0.000060 0.000060 0.000015 -0.000040 -8.379267 71.020905
40 71.020905 -0.000060 0.000060 0.000015 -0.000040 -8.379267 71.020905
[R_forearm]
39 322.776428 -0.000060 0.000030 0.208464 -0.035684 -81.107056 322.776428
40 322.776428 -0.000060 0.000030 0.208122 -0.035175 -81.157623 322.776428
[R_front_hand]
39 238.847015 -0.006795 2.210259 -1.675567 -0.422461 -92.889427 238.857239
40 238.847015 -0.006795 2.210259 -1.675624 -0.422236 -92.874069 238.857239
[R_weapon_bone]
39 155.664093 0.002503 -0.000030 0.003487 0.001180 -90.988930 155.664078
40 155.664093 0.002503 -0.000030 0.003487 0.001180 -90.988930 155.664078
[R_front_hand01_01]
39 87.624611 14.231146 22.918642 -116.960213 3.496675 -1.324139 91.683487
40 87.624611 14.231146 22.918642 -116.960213 3.496675 -1.324139 91.683487
[R_front_hand02_01]
39 89.356956 14.367283 -19.491137 118.419647 -4.257089 0.609827 92.579636
40 89.356956 14.367283 -19.491137 118.419647 -4.257089 0.609827 92.579636
[R_front_hand03_01]
39 87.286232 -22.307278 -0.143439 -0.387970 -0.231462 4.232001 90.091743
40 87.286232 -22.307278 -0.143439 -0.387970 -0.231462 4.232001 90.091743
[R_front_hand01_02]
39 71.020905 0.000060 0.000119 -0.000005 -0.000020 8.379271 71.020905
40 71.020905 0.000060 0.000119 -0.000005 -0.000020 8.379271 71.020905
[R_front_hand02_02]
39 71.020844 -0.000030 -0.000119 0.000000 -0.000021 8.379271 71.020836
40 71.020844 -0.000030 -0.000119 0.000000 -0.000021 8.379271 71.020836
[R_front_hand03_02]
39 71.020905 0.000000 0.000030 -0.000001 -0.000020 8.379275 71.020905
40 71.020905 0.000000 0.000030 -0.000001 -0.000020 8.379275 71.020905
[null_rope01_connect]
39 328.732483 0.000000 -0.000238 112.032227 -73.162468 -88.165665 328.732483
40 328.732483 0.000000 -0.000238 112.251755 -73.165550 -87.969765 328.732483
[Rope1_Seg01]
39 0.000000 0.000000 0.000000 75.553673 23.059448 83.584389 0.000000
40 0.000000 0.000000 0.000000 75.515678 24.143293 83.910286 0.000000
[Rope1_Seg02]
39 139.999863 -0.000179 0.000000 57.288868 -13.264974 47.942734 139.999863
40 139.999863 -0.000179 0.000000 56.430431 -13.705014 48.787216 139.999863
[Rope1_Seg03]
39 139.999924 0.000060 -0.000060 53.238892 12.011394 16.546288 139.999924
40 139.999924 0.000060 -0.000060 51.812065 11.361131 15.923589 139.999924
[Rope1_Seg04]
39 139.999924 -0.000060 -0.000119 30.419046 46.820507 2.128196 139.999924
40 139.999924 -0.000060 -0.000119 32.992825 46.870129 4.128744 139.999924
[Rope1_Seg05]
39 139.999832 0.000119 -0.000060 -0.002587 20.186827 -11.188653 139.999832
40 139.999832 0.000119 -0.000060 0.054814 20.676319 -11.414174 139.999832
[Rope1_Seg06]
39 139.999954 0.000119 -0.000060 -0.445768 8.668648 -5.015933 139.999954
40 139.999954 0.000119 -0.000060 -0.454692 8.906490 -5.154893 139.999954
[Rope1_Seg07]
39 139.999985 0.000060 0.000000 -0.135230 2.369378 -1.356575 139.999985
40 139.999985 0.000060 0.000000 -0.140055 2.468213 -1.411240 139.999985
[Rope1_Seg09]
39 121.602913 0.000119 -0.000089 -89.793175 -1.359789 0.847147 121.602913
40 121.602913 0.000119 -0.000089 -89.793175 -1.359789 0.847147 121.602913
[L_mid_hand01]
39 103.859421 1.038730 8.195221 104.352036 0.341479 -0.444583 104.187431
40 103.859421 1.038730 8.195221 104.352036 0.341479 -0.444583 104.187431
[L_mid_hand02]
39 105.572853 -4.139662 -10.864139 -135.608444 3.905687 -3.381056 106.211075
40 105.572853 -4.139662 -10.864139 -135.608444 3.905687 -3.381056 106.211075
[L_mid_hand03]
39 104.641464 17.579376 -3.913581 -18.761518 -0.324361 2.942912 106.179977
40 104.641464 17.579376 -3.913581 -18.761515 -0.324361 2.942912 106.179977
[null_rope02_connect]
39 328.732849 0.000179 -0.000119 125.144554 84.398712 -88.870392 328.732849
40 328.732849 0.000179 -0.000119 125.563507 84.374260 -88.812286 328.732849
[Rope2_Seg01]
39 0.000076 0.000111 0.000153 -5.770418 51.222355 106.737488 0.000204
40 0.000076 0.000112 0.000153 -5.857944 51.302685 106.631737 0.000204
[Rope2_Seg02]
39 139.999741 -0.000060 -0.000119 -17.825705 -55.332733 -36.346436 139.999756
40 139.999741 -0.000060 -0.000119 -17.672956 -54.702019 -35.309765 139.999756
[Rope2_Seg03]
39 140.000107 0.000030 0.000000 -25.978558 -15.256010 -28.289057 140.000107
40 140.000107 0.000030 0.000000 -26.431578 -15.958394 -28.731766 140.000107
[Rope2_Seg04]
39 139.999802 0.000000 -0.000060 -20.656078 -11.782992 -32.285240 139.999802
40 139.999802 0.000000 -0.000060 -20.597178 -11.744172 -31.937487 139.999802
[Rope2_Seg05]
39 139.999985 -0.000060 0.000119 -11.506083 1.364984 -32.012192 139.999985
40 139.999985 -0.000060 0.000119 -11.720875 1.186253 -32.333397 139.999985
[Rope2_Seg06]
39 139.999893 -0.000030 -0.000119 -1.961233 3.388363 -12.622869 139.999893
40 139.999893 -0.000030 -0.000119 -2.002648 3.411905 -12.747451 139.999893
[Rope2_Seg07]
39 139.999893 0.000060 -0.000060 -0.302233 1.467693 -4.880549 139.999893
40 139.999893 0.000060 -0.000060 -0.310209 1.488244 -4.950025 139.999893
[Rope2_Seg09]
39 121.338966 0.000089 -0.000060 33.793236 -1.359788 -0.847141 121.338966
40 121.338966 0.000089 -0.000060 33.793236 -1.359788 -0.847141 121.338966
[R_mid_hand01]
39 104.680779 11.144459 -10.335981 -47.384258 2.963522 5.452604 105.778534
40 104.680779 11.144459 -10.335981 -47.384258 2.963522 5.452604 105.778534
[R_mid_hand02]
39 104.070427 2.443552 8.231699 75.626297 -2.250001 1.111093 104.424065
40 104.070427 2.443552 8.231699 75.626297 -2.250001 1.111093 104.424065
[R_mid_hand03]
39 106.028137 -11.221827 -5.996406 -164.381912 2.495983 -6.140520 106.788818
40 106.028137 -11.221827 -5.996406 -164.381927 2.495983 -6.140520 106.788818
[spine02]
39 129.756927 0.001550 0.000119 -3.588206 -2.863439 48.296555 129.756927
40 129.756927 0.001550 0.000119 -3.577653 -2.871775 48.115681 129.756927
[spine03]
39 79.115631 0.000000 -0.000119 5.647137 8.326257 53.387306 79.115631
40 79.115631 0.000000 -0.000119 5.627306 8.324758 53.191273 79.115631
[pelvis]
39 169.435242 0.051022 0.000000 -7.450507 -2.884543 14.340120 169.435257
40 169.435242 0.051022 0.000000 -7.426011 -2.879316 14.288981 169.435257
[null_rope03_connect]
39 -1.257226 -2.466202 137.391083 147.594345 -84.313316 -133.305237 137.418976
40 -1.257226 -2.466202 137.391083 147.891342 -84.325806 -133.164688 137.418976
[null_rope04_connect]
39 -1.259640 -2.480268 -137.844437 147.594345 -84.313316 -133.305237 137.872513
40 -1.259640 -2.480268 -137.844437 147.891342 -84.325806 -133.164688 137.872513
[Rope3_Seg01]
39 0.000010 0.000038 -0.000114 -171.024078 74.835678 -106.783211 0.000121
40 0.000010 0.000038 -0.000114 -171.383484 75.059235 -107.052834 0.000121
[Rope3_Seg02]
39 139.999924 -0.000119 0.000060 -10.335073 -18.948612 10.986810 139.999924
40 139.999924 -0.000119 0.000060 -10.206436 -18.798948 10.845881 139.999924
[Rope3_Seg03]
39 139.999924 -0.000119 0.000119 -19.884832 -45.010269 22.499336 139.999924
40 139.999924 -0.000119 0.000119 -19.690756 -44.750515 22.271732 139.999924
[Rope3_Seg04]
39 139.999924 0.000119 0.000000 -0.660419 -23.818199 4.600224 139.999924
40 139.999924 0.000119 0.000000 -0.705139 -23.956596 4.648808 139.999924
[Rope3_Seg05]
39 139.999924 -0.000238 0.000060 8.963560 -60.410484 15.143028 139.999924
40 139.999924 -0.000238 0.000060 8.951078 -60.067955 14.912187 139.999924
[Rope3_Seg06]
39 139.999893 -0.000119 -0.000060 11.581120 -43.141006 27.489817 139.999893
40 139.999893 -0.000119 -0.000060 11.586260 -43.565125 27.641968 139.999893
[Rope3_Seg07]
39 139.999771 0.000060 -0.000119 2.983889 -5.250463 6.084574 139.999771
40 139.999771 0.000060 -0.000119 2.999114 -5.285751 6.119020 139.999771
[Rope3_Seg08]
39 139.999985 -0.000060 0.000000 1.486211 -1.967909 2.551174 139.999985
40 139.999985 -0.000060 0.000000 1.489416 -1.974016 2.558465 139.999985
[Rope3_Seg09]
39 90.185997 -0.000179 -0.000060 89.793228 -1.359877 -0.847183 90.185997
40 90.185997 -0.000179 -0.000060 89.793228 -1.359877 -0.847183 90.185997
[R_rear_hand01]
39 103.366196 -6.073594 -10.757982 -156.049316 6.070419 -2.795869 104.101845
40 103.366196 -6.073594 -10.757982 -156.049316 6.070419 -2.795869 104.101845
[R_rear_hand02]
39 100.509819 12.039542 -7.992327 -38.708435 1.958051 5.461186 101.543350
40 100.509819 12.039542 -7.992327 -38.708424 1.958050 5.461185 101.543350
[R_rear_hand03]
39 101.539970 5.215704 5.435467 84.307632 -2.361033 4.099038 101.819031
40 101.539970 5.215704 5.435467 84.307625 -2.361032 4.099037 101.819031
[Rope4_Seg01]
39 -0.000010 0.000018 -0.000211 84.644737 78.026962 -76.749641 0.000212
40 -0.000011 0.000017 -0.000212 84.822418 78.206978 -76.638046 0.000213
[Rope4_Seg02]
39 139.999985 0.000060 0.000119 4.845178 5.474015 -14.271123 139.999985
40 139.999985 0.000060 0.000119 4.800724 5.413135 -14.160316 139.999985
[Rope4_Seg03]
39 139.999924 0.000000 -0.000238 4.934102 11.329020 -47.141376 139.999924
40 139.999924 0.000000 -0.000238 4.962188 11.244325 -46.704887 139.999924
[Rope4_Seg04]
39 139.999985 0.000000 0.000119 -2.882143 3.247870 -37.342724 139.999985
40 139.999985 0.000000 0.000119 -2.863634 3.289557 -37.589146 139.999985
[Rope4_Seg05]
39 139.999802 -0.000060 -0.000119 -8.810589 6.029725 -30.633570 139.999802
40 139.999802 -0.000060 -0.000119 -8.698144 5.970870 -30.409065 139.999802
[Rope4_Seg06]
39 139.999924 0.000000 0.000060 -22.254265 14.587387 -48.744583 139.999924
40 139.999924 0.000000 0.000060 -22.292067 14.539346 -48.889565 139.999924
[Rope4_Seg07]
39 139.999802 0.000000 0.000000 -6.033360 10.233387 -15.410222 139.999802
40 139.999802 0.000000 0.000000 -6.099476 10.297541 -15.544126 139.999802
[Rope4_Seg08]
39 139.999924 0.000000 0.000119 -2.535903 2.876338 -3.574735 139.999924
40 139.999924 0.000000 0.000119 -2.550456 2.908359 -3.619169 139.999924
[Rope4_Seg09]
39 90.185791 0.000060 0.000060 -135.617828 2.228885 0.850567 90.185791
40 90.185791 0.000060 0.000060 -135.617828 2.228885 0.850567 90.185791
[L_rear_hand01]
39 101.696655 -8.392275 -7.654577 -38.746338 0.246096 177.290207 102.329041
40 101.696655 -8.392275 -7.654577 -38.746338 0.246096 177.290207 102.329041
[L_rear_hand02]
39 102.726799 -1.568258 5.773216 84.314865 -1.139136 176.250763 102.900848
40 102.726799 -1.568258 5.773216 84.314880 -1.139137 176.250763 102.900848
[L_rear_hand03]
39 104.552910 9.721220 -10.420293 -155.747955 -4.630845 179.564758 105.519653
40 104.552910 9.721220 -10.420293 -155.747955 -4.630845 179.564758 105.519653
